<svg width="170" height="28" viewBox="0 0 170 28" fill="none" xmlns="http://www.w3.org/2000/svg">
<path d="M83.3344 22.6753C81.6161 22.6753 79.9373 22.4858 78.298 22.1069C76.6784 21.708 75.3452 21.1795 74.2985 20.5214L76.55 15.3761C77.5376 15.9545 78.6436 16.4231 79.8681 16.7821C81.0927 17.1211 82.2678 17.2907 83.3936 17.2907C84.3614 17.2907 85.0527 17.2009 85.4674 17.0214C85.8822 16.822 86.0896 16.5328 86.0896 16.1539C86.0896 15.7152 85.8131 15.3861 85.2601 15.1667C84.7268 14.9473 83.838 14.708 82.5937 14.4488C80.9939 14.1097 79.6608 13.7508 78.5942 13.3718C77.5277 12.973 76.5994 12.3348 75.8094 11.4573C75.0194 10.5599 74.6243 9.35333 74.6243 7.83766C74.6243 6.52142 74.9897 5.32484 75.7205 4.24792C76.4513 3.17099 77.5376 2.32342 78.9794 1.70518C80.4409 1.08695 82.2086 0.777832 84.2824 0.777832C85.7044 0.777832 87.0969 0.937376 88.4597 1.25646C89.8422 1.55561 91.0569 2.00433 92.1037 2.60262L90.0002 7.718C87.9659 6.68096 86.0402 6.16245 84.2232 6.16245C82.4258 6.16245 81.5272 6.60119 81.5272 7.47869C81.5272 7.89749 81.7938 8.21658 82.3271 8.43595C82.8604 8.63538 83.7393 8.85475 84.9638 9.09407C86.5439 9.39322 87.877 9.74222 88.9633 10.1411C90.0496 10.52 90.9877 11.1482 91.7778 12.0257C92.5875 12.9032 92.9924 14.0998 92.9924 15.6154C92.9924 16.9317 92.6271 18.1283 91.8963 19.2052C91.1655 20.2622 90.0693 21.1097 88.6078 21.7479C87.166 22.3661 85.4082 22.6753 83.3344 22.6753Z" fill="white"/>
<path d="M103.576 22.4958C101.739 22.4958 100.09 22.1368 98.6281 21.4189C97.1863 20.7009 96.0506 19.6938 95.2211 18.3975C94.4113 17.1012 94.0064 15.6354 94.0064 14.0001C94.0064 12.3647 94.4113 10.9089 95.2211 9.63253C96.0506 8.33624 97.1863 7.32911 98.6281 6.61117C100.09 5.89322 101.739 5.53424 103.576 5.53424C105.551 5.53424 107.239 5.96302 108.642 6.82057C110.044 7.67812 111.012 8.86473 111.545 10.3804L106.36 12.953C105.728 11.5171 104.79 10.7992 103.546 10.7992C102.756 10.7992 102.094 11.0784 101.561 11.6368C101.048 12.1952 100.791 12.983 100.791 14.0001C100.791 15.0371 101.048 15.8348 101.561 16.3932C102.094 16.9516 102.756 17.2308 103.546 17.2308C104.79 17.2308 105.728 16.5129 106.36 15.077L111.545 17.6496C111.012 19.1653 110.044 20.3519 108.642 21.2095C107.239 22.067 105.551 22.4958 103.576 22.4958Z" fill="white"/>
<path d="M120.351 5.53424C123.195 5.53424 125.368 6.18239 126.869 7.47869C128.37 8.75504 129.12 10.7294 129.12 13.4018V22.1966H122.899V20.0428C122.128 21.6781 120.598 22.4958 118.307 22.4958C117.023 22.4958 115.927 22.2764 115.018 21.8377C114.129 21.379 113.448 20.7707 112.974 20.0129C112.52 19.2351 112.293 18.3676 112.293 17.4103C112.293 15.7949 112.905 14.5684 114.129 13.7308C115.354 12.8932 117.211 12.4744 119.699 12.4744H122.395C122.178 11.1981 121.161 10.5599 119.344 10.5599C118.613 10.5599 117.872 10.6795 117.122 10.9189C116.371 11.1382 115.729 11.4473 115.196 11.8462L113.063 7.38894C113.991 6.81059 115.107 6.36188 116.411 6.04279C117.734 5.70376 119.047 5.53424 120.351 5.53424ZM120.321 18.4274C120.795 18.4274 121.22 18.2978 121.595 18.0385C121.97 17.7793 122.247 17.3904 122.425 16.8718V15.7351H120.766C119.403 15.7351 118.721 16.1938 118.721 17.1112C118.721 17.4901 118.86 17.8092 119.136 18.0684C119.432 18.3077 119.827 18.4274 120.321 18.4274Z" fill="white"/>
<path d="M142.827 5.53424C144.249 5.53424 145.553 5.88324 146.738 6.58125C147.943 7.25931 148.891 8.24649 149.582 9.54279C150.293 10.8391 150.648 12.3348 150.648 14.03C150.648 15.7251 150.293 17.2208 149.582 18.5171C148.891 19.7935 147.943 20.7807 146.738 21.4787C145.553 22.1567 144.249 22.4958 142.827 22.4958C141.03 22.4958 139.657 22.0271 138.709 21.0898V28.0001H132.014V5.83339H138.383V7.17954C139.351 6.08268 140.832 5.53424 142.827 5.53424ZM141.227 17.2308C141.998 17.2308 142.63 16.9516 143.123 16.3932C143.617 15.8348 143.864 15.0471 143.864 14.03C143.864 13.0129 143.617 12.2251 143.123 11.6667C142.63 11.0884 141.998 10.7992 141.227 10.7992C140.457 10.7992 139.825 11.0884 139.331 11.6667C138.838 12.2251 138.591 13.0129 138.591 14.03C138.591 15.0471 138.838 15.8348 139.331 16.3932C139.825 16.9516 140.457 17.2308 141.227 17.2308Z" fill="white"/>
<path d="M170 14.0001C170 14.0998 169.97 14.6283 169.911 15.5855H158.653C158.89 16.2038 159.285 16.6824 159.838 17.0214C160.391 17.3405 161.083 17.5001 161.912 17.5001C162.623 17.5001 163.216 17.4103 163.69 17.2308C164.183 17.0513 164.717 16.7422 165.289 16.3035L168.785 19.8633C167.205 21.6183 164.845 22.4958 161.705 22.4958C159.749 22.4958 158.031 22.1368 156.55 21.4189C155.069 20.681 153.923 19.6639 153.113 18.3676C152.303 17.0713 151.899 15.6154 151.899 14.0001C151.899 12.3647 152.294 10.9089 153.084 9.63253C153.893 8.33624 154.99 7.32911 156.372 6.61117C157.774 5.89322 159.345 5.53424 161.083 5.53424C162.722 5.53424 164.213 5.8633 165.556 6.52142C166.919 7.17954 167.995 8.14678 168.785 9.42313C169.595 10.6995 170 12.2251 170 14.0001ZM161.142 10.1411C160.451 10.1411 159.878 10.3305 159.424 10.7095C158.969 11.0884 158.673 11.6268 158.535 12.3248H163.749C163.611 11.6468 163.314 11.1183 162.86 10.7394C162.406 10.3405 161.833 10.1411 161.142 10.1411Z" fill="white"/>
<path d="M35.1364 1.25641L28.5002 22.1966H21.0048L17.6571 11.0085L14.1316 22.1966H6.63622L0 1.25641H7.19911L10.8135 13.1624L14.6352 1.25641H21.0641L24.6784 13.312L28.5002 1.25641H35.1364Z" fill="#0E4BDE"/>
<path d="M52.5377 14C52.5377 14.0997 52.5081 14.6282 52.4488 15.5855H41.191C41.428 16.2037 41.823 16.6823 42.376 17.0214C42.929 17.3405 43.6203 17.5 44.4498 17.5C45.1608 17.5 45.7534 17.4103 46.2274 17.2308C46.7211 17.0513 47.2544 16.7422 47.8272 16.3034L51.323 19.8632C49.743 21.6182 47.3828 22.4957 44.2424 22.4957C42.2871 22.4957 40.5688 22.1368 39.0875 21.4188C37.6062 20.6809 36.4607 19.6638 35.6509 18.3675C34.8411 17.0712 34.4362 15.6154 34.4362 14C34.4362 12.3647 34.8313 10.9088 35.6213 9.63248C36.4311 8.33618 37.5272 7.32906 38.9098 6.61111C40.3121 5.89316 41.8822 5.53419 43.6203 5.53419C45.2596 5.53419 46.7508 5.86325 48.0938 6.52137C49.4566 7.17949 50.533 8.14672 51.323 9.42308C52.1328 10.6994 52.5377 12.2251 52.5377 14ZM43.6795 10.141C42.9883 10.141 42.4155 10.3305 41.9612 10.7094C41.507 11.0883 41.2107 11.6268 41.0725 12.3248H46.2866C46.1484 11.6467 45.8521 11.1182 45.3979 10.7393C44.9436 10.3405 44.3708 10.141 43.6795 10.141Z" fill="#0E4BDE"/>
<path d="M65.4641 5.53419C66.8862 5.53419 68.1897 5.88319 69.3747 6.5812C70.5795 7.25926 71.5276 8.24644 72.2188 9.54274C72.9299 10.8191 73.2854 12.3048 73.2854 14C73.2854 15.6952 72.9299 17.1909 72.2188 18.4872C71.5276 19.7835 70.5795 20.7806 69.3747 21.4786C68.1897 22.1567 66.8862 22.4957 65.4641 22.4957C63.4693 22.4957 61.988 21.9473 61.0202 20.8504V22.1966H54.6506V0H61.3461V6.94017C62.2941 6.00285 63.6668 5.53419 65.4641 5.53419ZM63.8643 17.2308C64.6346 17.2308 65.2666 16.9516 65.7604 16.3932C66.2541 15.8148 66.501 15.0171 66.501 14C66.501 12.9829 66.2541 12.1952 65.7604 11.6368C65.2666 11.0783 64.6346 10.7991 63.8643 10.7991C63.094 10.7991 62.462 11.0783 61.9683 11.6368C61.4745 12.1952 61.2276 12.9829 61.2276 14C61.2276 15.0171 61.4745 15.8148 61.9683 16.3932C62.462 16.9516 63.094 17.2308 63.8643 17.2308Z" fill="#0E4BDE"/>
</svg>
