<svg width="13" height="13" viewBox="0 0 13 13" fill="none" xmlns="http://www.w3.org/2000/svg">
<g clip-path="url(#clip0)">
<path d="M11.9569 8.53301C11.161 8.53301 10.3795 8.40853 9.63892 8.1638C9.27604 8.04003 8.82995 8.15357 8.60847 8.38104L7.14675 9.48448C5.45157 8.57959 4.40737 7.53573 3.51484 5.85328L4.58582 4.42965C4.86407 4.15177 4.96387 3.74586 4.84429 3.365C4.59851 2.62055 4.47366 1.83943 4.47366 1.04318C4.47369 0.467966 4.00573 0 3.43054 0H1.04315C0.467966 0 0 0.467966 0 1.04315C0 7.63625 5.36379 13 11.9569 13C12.5321 13 13 12.532 13 11.9569V9.57613C13 9.00098 12.532 8.53301 11.9569 8.53301Z" fill="white"/>
</g>
<defs>
<clipPath id="clip0">
<rect width="13" height="13" fill="white"/>
</clipPath>
</defs>
</svg>
